<?xml version="1.0" encoding="utf-8"?>
<!-- Generator: Adobe Illustrator 18.0.0, SVG Export Plug-In . SVG Version: 6.00 Build 0)  -->
<!DOCTYPE svg PUBLIC "-//W3C//DTD SVG 1.1//EN" "http://www.w3.org/Graphics/SVG/1.1/DTD/svg11.dtd">
<svg version="1.1" xmlns="http://www.w3.org/2000/svg" xmlns:xlink="http://www.w3.org/1999/xlink" x="0px" y="0px"
	 viewBox="0 0 2472 2660" enable-background="new 0 0 2472 2660" xml:space="preserve">
<g id="Background">
	<rect x="-17.2" y="-13" fill="#1D263E" width="2504.4" height="2998.7"/>
</g>
<g id="Object">
	<g>
		<path fill="#ff6b6b" d="M866.1,1497.5c2.5,3.8,5.1,7.5,7.7,11.1l-5.5-11.1H866.1z"/>
		<path fill="#99e9f2" d="M1255.4,1500.1l-10.5,37.4c-0.7,2.3-2.7,3.9-5.1,4c-0.1,0-0.2,0-0.2,0c-2.3,0-4.4-1.4-5.2-3.6l-17.9-48.2
			l-22.5,19.4c-1,0.9-2.3,1.3-3.6,1.3h-51.8c-2.7,0-5-1.9-5.5-4.6l-21-121l-26.4,121.2c-0.6,2.6-2.8,4.4-5.4,4.4h-63.5
			c-1.8,0-3.5-0.9-4.5-2.3L989,1476l-31.7,33.9c-1,1.1-2.5,1.8-4.1,1.8h-20.7c-2.7,0-5-1.9-5.5-4.6l-18.6-105.6l-17.1,119.7
			c-0.3,2.3-2,4.1-4.2,4.6c25.7,31.3,54.2,55.9,79.5,74.3c55.3,40.2,106.7,59.7,116.7,63.3c10-3.6,61.7-23.1,117-63.5
			c27.3-19.9,58.2-46.9,85.4-81.8l-9.5-18.1H1255.4z"/>
		<path fill="#ff6b6b" d="M1303.9,1493c9-13.8,17.3-28.7,24.6-44.6l-8.8-60.9L1303.9,1493z"/>
		<path fill="#ff6b6b" d="M1328.9,1271.5c-25.3-31.2-67-49.8-111.3-49.8c-53.6,0-115.5,28.4-128.7,108.1c-0.4,2.7-2.8,4.6-5.5,4.6
			c-2.7,0-5-2-5.5-4.6c-13.1-79.7-75.1-108.1-128.7-108.1c-44.3,0-86,18.6-111.3,49.8c-23.4,28.8-31.2,65.9-22.5,107.4
			c8.6,41,24.2,76.7,43.3,107.5h12.9c2.1,0,4,1.2,5,3.1l6.3,12.6l19.5-136.6c0.4-2.7,2.7-4.7,5.4-4.8c2.8,0,5.1,1.9,5.6,4.6
			l23.8,135.3h13.7l34.6-37.1c1.1-1.2,2.7-1.9,4.4-1.8c1.7,0.1,3.2,0.9,4.1,2.3l25.5,35.3h56.2l31.4-144.6c0.6-2.6,2.8-4.4,5.4-4.4
			c0,0,0.1,0,0.1,0c2.7,0.1,4.9,2,5.4,4.6l25.1,144.4h45.1l26.9-23.3c1.4-1.2,3.2-1.6,5-1.2c1.8,0.5,3.2,1.7,3.8,3.4l14.8,39.7
			l7.1-25.1c0.7-2.4,2.9-4,5.3-4h28.5c2.1,0,4,1.1,4.9,3l6.4,12.2l23.4-155.5c0.4-2.7,2.7-4.7,5.5-4.7c0,0,0,0,0,0
			c2.8,0,5.1,2,5.5,4.8l11.5,79.9c6-15.6,10.9-32.2,14.6-49.7C1360.1,1337.4,1352.3,1300.2,1328.9,1271.5z"/>
	</g>
	<g>
		<path fill="#ff6b6b" d="M1775.6,752.2c-10.1-0.9-19.6-1.7-28.4-2.7c-27-2.9-53.6-7.2-55.6-24.3c-1.6-13.7,16.5-20.9,50.6-28.8v-28
			c-39.5,11.5-82.5,27.9-87.2,54c-1.1,5.9,0.2,11.3,3.8,16.4c10.7,15.2,41.8,27.3,89.8,35c14.2,2.3,29.7,4.2,46,5.6
			c11.9,1,22,1.6,28.3,1.9c44.9,2.2,116.1,26.4,116.1,81.5c0,10.3,2,14.6,3.1,15.7c0.8-0.5,2.7-2.4,4.3-7.1
			c4.9-14.2,2.6-41.6-19.9-72.2c-22.9-31.2-77.4-40.3-132.9-45.5C1787.6,753.2,1781.5,752.7,1775.6,752.2z"/>
		<path fill="#ff6b6b" d="M1799.8,684.4c83-17.3,174.4-40.7,227-94.1c51.7-52.5,69.8-130.6,47.4-203.7
			c-20.3-66.1-70.9-113.3-135.3-126.3c-11.4-2.3-23.1-3.5-34.6-3.5c-41.8,0-83.7,15.5-117.9,43.7c-29.2,24-49.2,54.3-52.2,79.2
			c-1.6,12.8,1.1,29.2,22.4,34.4c2.4,0.6,4.7,0.9,7,0.9c23.4,0,37.9-32,44.5-51.1c11-32,45.9-66.3,96.8-66.3
			c13.3,0,27.1,2.3,41.1,6.9c71.5,23.5,101.6,101.1,93.5,162.2c-6.3,47.4-33.1,131.7-142.7,163c-24.2,6.9-50.9,13.2-76.6,19.2
			c-6.8,1.6-13.5,3.2-20.2,4.8V684.4z"/>
		<path fill="#99e9f2" d="M1788.7,820.7V790c-0.1,0-0.2,0-0.3,0c-2.7-0.3-5.5-0.5-8.1-0.8c-0.6-0.1-1.2-0.1-1.8-0.2
			c-2.3-0.2-4.6-0.5-6.9-0.8c-0.5-0.1-0.9-0.1-1.4-0.2c-2.6-0.3-5.2-0.6-7.7-1c-0.5-0.1-1.1-0.1-1.6-0.2c-2.3-0.3-4.6-0.6-6.8-1
			c-0.2,0-0.5-0.1-0.7-0.1v34.9c0,3.1-2.5,5.5-5.5,5.5c-55.9,0-79.3,16.8-88.3,26.9h222.9c-9.3-10.1-32.9-26.9-88.1-26.9
			C1791.2,826.2,1788.7,823.7,1788.7,820.7z"/>
		<path fill="#99e9f2" d="M1748.4,599.6c2.8,0.3,5,2.7,5,5.5v55.9v39.8V739c0.3,0,0.7,0.1,1,0.1c0.8,0.1,1.6,0.2,2.4,0.2
			c1.4,0.1,2.7,0.3,4.1,0.4c0.8,0.1,1.6,0.2,2.4,0.2c1.5,0.1,3,0.3,4.5,0.4c0.7,0.1,1.5,0.1,2.2,0.2c1.8,0.2,3.6,0.3,5.4,0.5
			c0.4,0,0.7,0.1,1.1,0.1c2.4,0.2,4.8,0.4,7.3,0.6c1,0.1,2,0.2,3,0.3c0.6,0.1,1.3,0.1,1.9,0.2v-51v-41.9v-44.1c0-2.9,2.2-5.2,5-5.5
			c54.9-5.4,97.8-30.4,127.4-74.3c16.1-23.9,23.7-47.1,26.6-58h-353.3c3,11,10.6,34.4,26.8,58.4
			C1650.8,569.4,1693.6,594.3,1748.4,599.6z"/>
	</g>
	<g>
		<path fill="#99e9f2" d="M645,1297.1H504.9H468H339.2h-36.9H162.1c-2,0-3.5,1.6-3.5,3.5v370.3c0,2,1.6,3.5,3.5,3.5H645
			c2,0,3.5-1.6,3.5-3.5v-370.3C648.6,1298.7,647,1297.1,645,1297.1z M544.3,1588.5c0,3.1-2.5,5.5-5.5,5.5H268.5
			c-3.1,0-5.5-2.5-5.5-5.5V1383c0-3.1,2.5-5.5,5.5-5.5h270.2c3.1,0,5.5,2.5,5.5,5.5V1588.5z"/>
		<path fill="#ff6b6b" d="M274,1583h259.1v-194.4H274V1583z M340.3,1463.2c0-3.1,2.5-5.5,5.5-5.5h29.6v-29.6c0-3.1,2.5-5.5,5.5-5.5
			h45c3.1,0,5.5,2.5,5.5,5.5v29.6h29.6c3.1,0,5.5,2.5,5.5,5.5v45c0,3.1-2.5,5.5-5.5,5.5h-29.6v29.6c0,3.1-2.5,5.5-5.5,5.5h-45
			c-3.1,0-5.5-2.5-5.5-5.5v-29.6h-29.6c-3.1,0-5.5-2.5-5.5-5.5V1463.2z"/>
		<path fill="#99e9f2" d="M386.6,1508.3v29.6h33.9v-29.6c0-3.1,2.5-5.5,5.5-5.5h29.6v-33.9h-29.6c-3.1,0-5.5-2.5-5.5-5.5v-29.6
			h-33.9v29.6c0,3.1-2.5,5.5-5.5,5.5h-29.6v33.9h29.6C384.1,1502.7,386.6,1505.2,386.6,1508.3z"/>
		<path fill="#ff6b6b" d="M333.6,1250.2c0-6,4.9-10.9,10.9-10.9h118.2c6,0,10.9,4.9,10.9,10.9v35.8h25.8v-66.9
			c0-5.1-4.2-9.3-9.3-9.3h-173c-5.1,0-9.3,4.2-9.3,9.3v66.9h25.8V1250.2z"/>
	</g>
	<g>
		<path fill="#ff6b6b" d="M1277.3,681.1c1.7,0,3.3,0.1,5,0.2c0.2,0,0.3,0,0.5,0c1.6,0.1,3.2,0.3,4.7,0.5c0.1,0,0.3,0,0.4,0
			l-59.3-103.2c-29,25.5-44.7,63.8-41.9,102.5H1277.3z"/>
		<path fill="#99e9f2" d="M1343,793.7c1.7-3.8,3.1-7.8,4.1-12.1c1.5-5.9,2.2-11.8,2.2-17.4c0-31.8-21.4-60.3-52-69.1
			c-6.6-1.9-13.4-2.9-20.1-2.9h-95.6h-25v144.1h120.6C1305.6,836.3,1331.4,819.6,1343,793.7z"/>
		<path fill="#ff6b6b" d="M1049.3,403.1c17.9,0,32.5-14.6,32.5-32.5s-14.6-32.5-32.5-32.5c-17.9,0-32.5,14.6-32.5,32.5
			S1031.4,403.1,1049.3,403.1z"/>
		<path fill="#ff6b6b" d="M1126.3,713.7c-0.4,0.4-0.9,0.7-1.4,1c-0.4,0.3-0.7,0.5-1.1,0.7c-0.5,0.3-1,0.6-1.5,0.9
			c-0.4,0.2-0.8,0.4-1.1,0.6c-0.5,0.3-1,0.5-1.6,0.8c-0.4,0.2-0.8,0.4-1.2,0.5c-0.6,0.2-1.1,0.4-1.7,0.6c-0.4,0.1-0.8,0.3-1.2,0.4
			c-0.6,0.2-1.2,0.3-1.8,0.5c-0.4,0.1-0.8,0.2-1.2,0.3c-0.7,0.1-1.4,0.2-2.1,0.3c-0.3,0-0.7,0.1-1,0.1c-1.1,0.1-2.1,0.2-3.2,0.2
			H967.6c-9.5,12.5-14.7,27.8-14.7,43.5c0,39.7,32.3,72,72,72h120.6V692.2h-7.1c-0.1,0.5-0.2,1.1-0.3,1.6c-0.1,0.4-0.1,0.8-0.2,1.1
			c-0.2,0.8-0.4,1.5-0.6,2.2c-0.1,0.3-0.1,0.5-0.2,0.8c-0.3,1-0.7,1.9-1.1,2.9c-0.1,0.2-0.1,0.3-0.2,0.4c-0.3,0.8-0.7,1.5-1.1,2.3
			c-0.2,0.3-0.4,0.6-0.5,0.9c-0.3,0.6-0.7,1.1-1,1.7c-0.2,0.3-0.5,0.6-0.7,1c-0.4,0.5-0.7,1-1.1,1.5c-0.3,0.3-0.5,0.6-0.8,0.9
			c-0.4,0.4-0.8,0.9-1.2,1.3c-0.3,0.3-0.6,0.6-0.9,0.9c-0.4,0.4-0.8,0.8-1.3,1.2C1127,713.2,1126.7,713.4,1126.3,713.7z"/>
		<path fill="#ff6b6b" d="M1418.3,609.9c-22.1-38.4-63.3-62.2-107.7-62.2c-13.5,0-26.7,2.2-39.4,6.4l121.3,211
			C1436.4,726.6,1447.7,661,1418.3,609.9z"/>
		<path fill="#ff6b6b" d="M927.9,535.4c17.9,0,32.5-14.6,32.5-32.5c0-17.9-14.6-32.5-32.5-32.5c-17.9,0-32.5,14.6-32.5,32.5
			C895.4,520.9,910,535.4,927.9,535.4z"/>
		<path fill="#ff6b6b" d="M927.9,667.7c17.9,0,32.5-14.6,32.5-32.5c0-17.9-14.6-32.5-32.5-32.5c-17.9,0-32.5,14.6-32.5,32.5
			C895.4,653.1,910,667.7,927.9,667.7z"/>
		<path fill="#ff6b6b" d="M1049.3,667.7c17.9,0,32.5-14.6,32.5-32.5c0-17.9-14.6-32.5-32.5-32.5c-17.9,0-32.5,14.6-32.5,32.5
			C1016.9,653.1,1031.4,667.7,1049.3,667.7z"/>
		<path fill="#ff6b6b" d="M927.9,403.1c17.9,0,32.5-14.6,32.5-32.5s-14.6-32.5-32.5-32.5c-17.9,0-32.5,14.6-32.5,32.5
			S910,403.1,927.9,403.1z"/>
		<path fill="#ff6b6b" d="M1049.3,535.4c17.9,0,32.5-14.6,32.5-32.5c0-17.9-14.6-32.5-32.5-32.5c-17.9,0-32.5,14.6-32.5,32.5
			C1016.9,520.9,1031.4,535.4,1049.3,535.4z"/>
		<path fill="#99e9f2" d="M870.9,709.6h94h141.4c11.8,0,21.4-9.6,21.4-21.4v-1.6V317.7c0-11.8-9.6-21.4-21.4-21.4H870.9
			c-11.8,0-21.4,9.6-21.4,21.4v370.5C849.5,700,859.1,709.6,870.9,709.6z M1049.3,327.1c24,0,43.6,19.5,43.6,43.6
			s-19.5,43.6-43.6,43.6c-24,0-43.6-19.5-43.6-43.6S1025.3,327.1,1049.3,327.1z M1049.3,459.4c24,0,43.6,19.5,43.6,43.6
			c0,24-19.5,43.6-43.6,43.6c-24,0-43.6-19.5-43.6-43.6C1005.8,478.9,1025.3,459.4,1049.3,459.4z M1049.3,591.7
			c24,0,43.6,19.5,43.6,43.6c0,24-19.5,43.6-43.6,43.6c-24,0-43.6-19.5-43.6-43.6C1005.8,611.2,1025.3,591.7,1049.3,591.7z
			 M927.9,327.1c24,0,43.6,19.5,43.6,43.6s-19.5,43.6-43.6,43.6c-24,0-43.6-19.5-43.6-43.6S903.9,327.1,927.9,327.1z M927.9,459.4
			c24,0,43.6,19.5,43.6,43.6c0,24-19.5,43.6-43.6,43.6c-24,0-43.6-19.5-43.6-43.6C884.3,478.9,903.9,459.4,927.9,459.4z
			 M927.9,591.7c24,0,43.6,19.5,43.6,43.6c0,24-19.5,43.6-43.6,43.6c-24,0-43.6-19.5-43.6-43.6C884.3,611.2,903.9,591.7,927.9,591.7
			z"/>
	</g>
	<g>
		<path fill="#99e9f2" d="M434.3,387.9c-63.7,61.2-156.3,152-162.1,162.5c-4.3,7.8-5.9,28.9-7.1,44.3c-1.5,20.1-2.1,25.4-6,28
			c-3.4,2.6-33.7,34.1-54.4,55.8l21.7,21.7c5.5-5.8,16.2-16.7,26.9-27.6c32.9-33.3,34.9-33.3,37.9-33.3c0.5,0,1.5,0,3.1,0.1
			c42.8,2.1,59-3.6,65.2-8.7c14.8-12.3,135.1-139,160.2-165.3c-13-8.8-24.9-18.3-30.5-22.9C471,427.5,449.3,407,434.3,387.9z"/>
		<path fill="#ff6b6b" d="M617.1,235.1c-62,0-142.4,110.7-143.2,111.8c-1,1.3-2.5,2.2-4.2,2.3c-1.7,0.1-3.3-0.5-4.4-1.8
			c-0.1-0.1-10.8-11.4-21.9-11.4c-6.1,0-11.2,3.5-15.8,10.6c-1.9,3-0.5,9.3,4,17.4c16.1,29.4,65.2,73.5,99.5,95.5
			c0.1,0.1,0.2,0.1,0.3,0.2c12.8,8.2,23.5,13.3,29.6,13.3c0.9,0,1.3-0.1,1.4-0.2c13.7-15.4,0-36.6-0.6-37.5c-1.5-2.3-1.1-5.5,1-7.3
			c1-0.8,98.1-83.7,100.2-144.8c0.5-14-4.1-25.4-13.9-34.9C639.9,239.5,629.4,235.1,617.1,235.1z"/>
		<path fill="#ff6b6b" d="M136.3,835.3c5,27.4,31.4,37.1,54.5,37.1c0,0,0,0,0,0c27.7,0,58.1-13.8,61.2-36.9
			c5.7-43.4-41.8-103.2-55.5-119.4C181,730.7,127.2,785.3,136.3,835.3z"/>
	</g>
	<g>
		<path fill="#99e9f2" d="M2031.2,1552.1c-11.7,0-21.2,9.5-21.2,21.2s9.5,21.2,21.2,21.2c11.7,0,21.2-9.5,21.2-21.2
			S2042.9,1552.1,2031.2,1552.1z"/>
		<path fill="#ff6b6b" d="M2031.2,1500c-40.4,0-73.3,32.9-73.3,73.3c0,40.4,32.9,73.3,73.3,73.3c40.4,0,73.3-32.9,73.3-73.3
			C2104.5,1532.9,2071.6,1500,2031.2,1500z M2031.2,1605.6c-17.8,0-32.3-14.5-32.3-32.3c0-17.8,14.5-32.3,32.3-32.3
			c17.8,0,32.3,14.5,32.3,32.3C2063.5,1591.1,2049,1605.6,2031.2,1605.6z"/>
		<path fill="#ff6b6b" d="M1656.9,1500c-40.4,0-73.3,32.9-73.3,73.3c0,40.4,32.9,73.3,73.3,73.3c40.4,0,73.3-32.9,73.3-73.3
			C1730.2,1532.9,1697.3,1500,1656.9,1500z M1656.9,1605.6c-17.8,0-32.3-14.5-32.3-32.3c0-17.8,14.5-32.3,32.3-32.3
			c17.8,0,32.3,14.5,32.3,32.3C1689.2,1591.1,1674.7,1605.6,1656.9,1605.6z"/>
		<rect x="1915.7" y="1245.3" fill="#99e9f2" width="109.9" height="24.1"/>
		<path fill="#99e9f2" d="M1656.9,1552.1c-11.7,0-21.2,9.5-21.2,21.2s9.5,21.2,21.2,21.2c11.7,0,21.2-9.5,21.2-21.2
			S1668.6,1552.1,1656.9,1552.1z"/>
		<path fill="#99e9f2" d="M2019.9,1408.5c-3.1,0-5.5-2.5-5.5-5.5v-96.7c0-3.1,2.5-5.5,5.5-5.5h50.2l-8.8-20.3h-517.2v295.7h28.5
			c0-1-0.1-1.9-0.1-2.9c0-46.5,37.8-84.4,84.4-84.4s84.4,37.8,84.4,84.4c0,1,0,1.9-0.1,2.9h205.7c0-1-0.1-1.9-0.1-2.9
			c0-46.5,37.8-84.4,84.4-84.4c46.5,0,84.4,37.8,84.4,84.4c0,1,0,1.9-0.1,2.9h35.4v-109.8l-33.4-57.9H2019.9z M1814.4,1462.1
			c0,3.1-2.5,5.5-5.5,5.5h-205.5c-3.1,0-5.5-2.5-5.5-5.5v-147.8c0-3.1,2.5-5.5,5.5-5.5h205.5c3.1,0,5.5,2.5,5.5,5.5V1462.1z
			 M1991.7,1403c0,3.1-2.5,5.5-5.5,5.5h-116.8c-3.1,0-5.5-2.5-5.5-5.5v-96.7c0-3.1,2.5-5.5,5.5-5.5h116.8c3.1,0,5.5,2.5,5.5,5.5
			V1403z"/>
		<rect x="1948.1" y="1183.3" fill="#ff6b6b" width="50.8" height="50.8"/>
		<path fill="#99e9f2" d="M1696.1,1403.7v27.5h19.9v-27.5c0-3.1,2.5-5.5,5.5-5.5h27.5v-19.9h-27.5c-3.1,0-5.5-2.5-5.5-5.5v-27.5
			h-19.9v27.5c0,3.1-2.5,5.5-5.5,5.5h-27.5v19.9h27.5C1693.6,1398.1,1696.1,1400.6,1696.1,1403.7z"/>
		<rect x="1874.9" y="1311.8" fill="#ff6b6b" width="105.7" height="85.6"/>
		<path fill="#ff6b6b" d="M1608.9,1456.5h194.4v-136.7h-194.4V1456.5z M1652,1372.7c0-3.1,2.5-5.5,5.5-5.5h27.5v-27.5
			c0-3.1,2.5-5.5,5.5-5.5h31c3.1,0,5.5,2.5,5.5,5.5v27.5h27.5c3.1,0,5.5,2.5,5.5,5.5v31c0,3.1-2.5,5.5-5.5,5.5h-27.5v27.5
			c0,3.1-2.5,5.5-5.5,5.5h-31c-3.1,0-5.5-2.5-5.5-5.5v-27.5h-27.5c-3.1,0-5.5-2.5-5.5-5.5V1372.7z"/>
		<polygon fill="#ff6b6b" points="2025.5,1397.4 2112,1397.4 2074.9,1311.8 2025.5,1311.8 		"/>
		<path fill="#ff6b6b" d="M2065.8,1130.4l-21.8,23.9c-2.1,2.3-1.9,5.8,0.4,7.8c1.1,1,2.4,1.4,3.7,1.4c1.5,0,3-0.6,4.1-1.8l21.8-23.9
			c2.1-2.3,1.9-5.8-0.4-7.8C2071.4,1128,2067.9,1128.1,2065.8,1130.4z"/>
		<path fill="#ff6b6b" d="M2026,1106.9l-11.3,31c-1,2.9,0.4,6.1,3.3,7.1c0.6,0.2,1.3,0.3,1.9,0.3c2.3,0,4.4-1.4,5.2-3.7l11.3-31
			c1-2.9-0.4-6.1-3.3-7.1C2030.2,1102.6,2027,1104,2026,1106.9z"/>
		<path fill="#ff6b6b" d="M1970.2,1093.4c-3.1,0.2-5.3,2.9-5.1,6l2.8,35.2c0.2,2.9,2.7,5.1,5.5,5.1c0.1,0,0.3,0,0.4,0
			c3.1-0.2,5.3-2.9,5.1-6l-2.8-35.2C1976,1095.5,1973.3,1093.2,1970.2,1093.4z"/>
		<path fill="#ff6b6b" d="M1916.7,1104.3c-2.5,1.8-3,5.3-1.2,7.8l22.5,31c1.1,1.5,2.8,2.3,4.5,2.3c1.1,0,2.3-0.3,3.3-1.1
			c2.5-1.8,3-5.3,1.2-7.8l-22.5-31C1922.7,1103.1,1919.2,1102.5,1916.7,1104.3z"/>
		<path fill="#ff6b6b" d="M1874,1135.7c-2.2,2.1-2.3,5.6-0.2,7.8l23.9,25.3c1.1,1.2,2.6,1.7,4,1.7c1.4,0,2.7-0.5,3.8-1.5
			c2.2-2.1,2.3-5.6,0.2-7.8l-23.9-25.3C1879.7,1133.7,1876.2,1133.6,1874,1135.7z"/>
	</g>
</g>
</svg>
